<?xml version="1.0" encoding="utf-8"?>
<!-- Generator: Adobe Illustrator 21.0.0, SVG Export Plug-In . SVG Version: 6.00 Build 0)  -->
<svg version="1.0" id="Menue" xmlns="http://www.w3.org/2000/svg" xmlns:xlink="http://www.w3.org/1999/xlink" x="0px" y="0px"
	 viewBox="0 0 33 27" style="enable-background:new 0 0 33 27;" xml:space="preserve">
<title>Navigation</title>
<path d="M8.2,1.7l20.1,20.1c0.9,0.9,0.9,2.4,0,3.3L28,25.3c-0.9,0.9-2.4,0.9-3.3,0L4.7,5.2C3.8,4.3,3.8,2.9,4.7,2L5,1.7
	C5.9,0.8,7.3,0.8,8.2,1.7z"/>
<path d="M4.7,21.8L24.8,1.7c0.9-0.9,2.4-0.9,3.3,0L28.3,2c0.9,0.9,0.9,2.4,0,3.3L8.2,25.3c-0.9,0.9-2.4,0.9-3.3,0L4.7,25
	C3.8,24.1,3.8,22.7,4.7,21.8z"/>
</svg>
