<?xml version="1.0" encoding="utf-8"?>
<!-- Generator: Adobe Illustrator 21.0.0, SVG Export Plug-In . SVG Version: 6.00 Build 0)  -->
<svg version="1.1" id="Leuchturm_innen" xmlns="http://www.w3.org/2000/svg" xmlns:xlink="http://www.w3.org/1999/xlink" x="0px"
	 y="0px" viewBox="0 0 383 505" style="enable-background:new 0 0 383 505;" xml:space="preserve">
<style type="text/css">
	.st0{fill:#FEFF6A;stroke:#000000;stroke-width:3;stroke-miterlimit:10;}
	.st1{fill:#EEEDF4;stroke:#000000;stroke-width:3;stroke-miterlimit:10;}
	.st2{opacity:0.75;fill:#6AECFF;stroke:#000000;stroke-width:3;stroke-miterlimit:10;enable-background:new    ;}
	.st3{fill:#C9002D;stroke:#000000;stroke-width:3;stroke-miterlimit:10;}
	.st4{fill:#C9002D;stroke:#000000;stroke-miterlimit:10;}
	.st5{stroke:#000000;stroke-width:3;stroke-miterlimit:10;}
</style>
<title>Leuchtturm_2</title>
<ellipse class="st0" cx="191.8" cy="183.5" rx="68.3" ry="122"/>
<polygon class="st1" points="312.5,228 71.1,228 84.1,424.5 298.5,424.5 "/>
<path class="st2" d="M72.5,86.5h238.5c5.6,0,10.2,4.6,10.2,10.2v121.5c0,5.6-4.6,10.2-10.2,10.2H72.5c-5.6,0-10.2-4.6-10.2-10.2
	V96.7C62.3,91.1,66.9,86.5,72.5,86.5z"/>
<path class="st3" d="M71.1,86.5c0-9.6,70.2-85,120.7-85c51.8,0,120.7,76.3,120.7,85H71.1z"/>
<rect x="17.5" y="297.5" class="st4" width="9.6" height="95"/>
<rect x="41.6" y="297.5" class="st4" width="9.6" height="95"/>
<rect x="65.6" y="297.5" class="st4" width="9.6" height="95"/>
<rect x="89.7" y="297.5" class="st4" width="9.6" height="95"/>
<rect x="113.8" y="297.5" class="st4" width="9.6" height="95"/>
<rect x="137.8" y="297.5" class="st4" width="9.6" height="95"/>
<rect x="161.9" y="297.5" class="st4" width="9.6" height="95"/>
<rect x="185.9" y="297.5" class="st4" width="9.6" height="95"/>
<rect x="210" y="297.5" class="st4" width="9.6" height="95"/>
<rect x="234.1" y="297.5" class="st4" width="9.6" height="95"/>
<rect x="258.1" y="297.5" class="st4" width="9.6" height="95"/>
<rect x="282.2" y="297.5" class="st4" width="9.6" height="95"/>
<rect x="306.2" y="297.5" class="st4" width="9.6" height="95"/>
<rect x="330.3" y="297.5" class="st4" width="9.6" height="95"/>
<rect x="354.4" y="297.5" class="st4" width="9.6" height="95"/>
<polygon class="st3" points="364.5,392.5 17.5,392.5 47.5,503.5 334.5,503.5 "/>
<rect x="1.5" y="285.5" class="st5" width="380" height="12"/>
</svg>
