<svg xmlns="http://www.w3.org/2000/svg" viewBox="0 0 841.89 595.28"><defs><style>.cls-1{fill:#fff;fill-rule:evenodd;}</style></defs><title>logo 2</title><g id="Ebene_2" data-name="Ebene 2"><path d="M401.47,22h20.42a11.91,11.91,0,0,0,1.93.43,277.5,277.5,0,0,1,55.54,9.07C507.51,39,534.27,50,560.09,63.34c35.11,18.17,67.74,40.11,98.53,64.84a307.79,307.79,0,0,1,41.87,39.93c10.65,12.48,20.06,25.78,26.9,40.77,5.33,11.7,9.12,23.8,9.16,36.84,0,6.73-.06,13.44-1.81,20-1.66,6.24-3.2,12.52-5,18.73-15.34,53.7-39.89,102.75-74.32,146.79-30.81,39.4-67.63,72.17-109.56,99.3-14.87,9.62-30.07,18.64-46.29,25.83-22.43,9.95-45.77,16.36-70.31,17.93a190.57,190.57,0,0,1-65.35-7.24c-22.47-6.47-43.41-16.34-63.23-28.64-29.89-18.55-56.57-41-80.88-66.37a432.36,432.36,0,0,1-66-88.59c-17.64-31.56-29.34-65.39-38.29-100.26A150.52,150.52,0,0,1,111,251.95a99.12,99.12,0,0,1,4.34-33.5,182.11,182.11,0,0,1,31.75-59.53,260,260,0,0,1,20.91-23,425.38,425.38,0,0,1,73-58c35.66-22.49,73.68-39.5,114.87-49a251.5,251.5,0,0,1,36.72-6C395.56,22.66,398.51,22.3,401.47,22Z"/></g><g id="Ebene_1" data-name="Ebene 1"><g id="tEaoMg"><path class="cls-1" d="M645,365.75c2.15,2.84-1.08,10.54-2.92,12.73a17,17,0,0,1-9.56,5.68c-7.45,1.79-14.41-8.38-15.27-14.7-.66-4.86,10.25-10.08,12.27-10.77C635.53,356.62,644,364.42,645,365.75Z"/><path class="cls-1" d="M655.83,307c-7.9,10.78-39.77,45.86-46.88,52.59-24.91,23.59-38.72,24.27-38.79,24.27-19.08,2.12-31.11-9-37.59-26.76-6.85,6.68-11.83,13.85-13.81,16.08-5.69,6.39-21.64,29.22-28.63,35.9-3.18,3-10.3,4.54-14.9,1.37-4-2.75-5.25-8.74-4.53-18.91.64-9.14,4.71-64.08,4.63-73-13,29.83-28.16,69.16-38.57,81.31-1.37,1.6-9.57,9.1-16.39,5.87-6.1-3-9.41-9.69-9.63-20-.36-17.43,2.41-30.94,3.64-48.94L406,343.29c-7.89,6.12-27.52,13.79-40.64,7.88-3.66-1.65-5.72-2.48-9-5.09-5.53,11.83-8.59,26-9.55,30.57-2.12,10.09-2.24,14.89-3.33,20.37-1,5.16-7,16.66-18.27,13.93s-10.11-19.62-9.46-25.27q1.06-9.3,1.82-18.64c1.16-14,7.61-91.75,8.36-98.11.29-2.47,1.28-9.15,3-24.92-4.21,8.93-30,55.87-35.39,66.25-5.83,11.27-25.78,67.25-36.8,64.15-7.88-2.22-7.25-19.82-7.31-26.4-.07-6.81,6.07-73.61,9.75-102.25-5.12,11-8.18,18.38-9.33,20.71-4.55,9.14-9.39,18.1-13.7,27.35-8.32,17.86-15.64,35.86-20.4,55-2.24,9-8.6,59.07-23,57.17-15.77-2.09-6.34-48.23-6.47-64.65-.17-19.91-1-39.52,1.27-59.35.94-8.2,3.11-32.27,14.58-32.51,11.49-.46,8.89,30,7.2,41.28,9.28-16.52,33.56-67.42,40.16-82.87,5.81-13.6,11.15-28.28,16.56-41.89,6.75-17,13.63-23.87,21.63-20.62,5.38,2.5,7.68,8.81,6.73,16.5-.37,3.75-9.55,93.77-11.48,113.13,1.22-1.56,10.93-18.25,11.67-19.5,7.89-13.34,50.34-100.28,55.33-107,6.17-8.31,13.18-9.41,17-6.87,5.37,3.62,2.32,24.66,1.05,31-2.6,13.13-15.69,101.92-16.38,115.62,0,0,7.63-14.54,12.9-21.91,6.36-8.9,29.69-39.05,55.83-39.1,10.3,0,21.38,5.16,25.2,15.22s3.29,19.13,1.89,30.07c-.6,4.69-2.44,13.89-5.08,17.91-1,4.88-4.11,26.19-5.1,33-.89,6.1-1.81,12.19-2.62,18.3-.33,2.46-1.45,14.32-1.62,20,.74-1.12,10.72-21.36,13.36-27.1,5.59-12.17,10-24.77,15.15-37.12,9.72-23.42,18-47.56,26.28-71.52-58.47,0-78.46-5.79-82.27-6.84-7.7-2.12-36.14-7.71-34.27-19.52,2.67-16.88,23.66-6.07,34-3.09a203.79,203.79,0,0,0,56.71,7.75c8.41,0,16.82-.3,25.21-1,2.28-.19,8.74-.61,8.74-.61,2.44-7.17,9.18-32.13,11.81-40.78,1.17-3.85,2.52-7.65,3.61-11.53,4.88-17.48,25-9.48,21.88,2.68-4.56,17.51-10.3,31.19-14.29,48.38,8.5.38,39-5.42,45.19-6.21,16.19-2,35.35-5.26,51.4-.76,7.35,2.06,11.53,5.07,13.46,12.27,1,3.76-2,10.15-5.55,11.14-8.31,2.29-14.43-1-23-1.51a210.89,210.89,0,0,0-29.26.54c-8.42.64-54.81,6.43-57.32,6.94-2.33,9.28-6,25-7.79,34.43-3.4,18.33-5.78,36.85-8.75,55.25-1.55,9.61-3.74,51.26-4.87,59.81,4-5.08,31.08-36.41,33.18-38.25,0,0-.93-3.79-2.29-9.14-6.23-24.58-10.36-48.06,2.71-70.9,14.87-26,85-14.24,93.52-4.44,5.74,6.63-.53,15-4.74,20.75-12.78,17.61-30,32.18-45.37,47.43-4.53,4.51-10.25,10.13-20,19.88,1.82,8.56,7.43,24.4,19.84,19.69,9.84-3.73,17-10.38,24.5-17.54,9.1-8.63,17.58-17.94,26.08-27.15,7.51-8.14,27.83-32.55,30.9-36.33,1.58-1.94,13.82-15,21.76-7.12C680,277.64,662.52,297.91,655.83,307Zm-273.7-15.76c-4.84,8.33-20.21,35.66-3.86,41.11,7.8,2.6,17.18-7.4,21.72-12.29,6.23-6.71,12.08-13.84,16.55-21.89,9.36-16.87,6.06-35.8,2.8-38.65C416.21,256.92,398.06,263.9,382.14,291.28ZM540.39,277c-1.55,7-1.39,13.92-.55,21,.65,5.53,1.73,11.75,2.91,17.19,0,0,46.93-45.67,48.77-49.92C592.11,263.27,545.51,253.74,540.39,277Z"/></g></g></svg>